<svg width="1473" height="600" viewBox="0 0 1473 600" fill="none" xmlns="http://www.w3.org/2000/svg">
<path fill-rule="evenodd" clip-rule="evenodd" d="M1460.48 10.8371C1435.56 36.1213 1405.24 57.3697 1366.19 76.9202C1301.95 109.084 1232.41 128.695 1142.61 139.969C1097.21 145.669 1063.84 147.561 1005.32 147.752C942.173 147.958 897.274 146.275 838.097 141.48C828.665 140.715 792.327 138.036 757.347 135.525L693.747 130.96L632.291 130.89L570.834 130.82L545.823 133.381C480.762 140.044 431.55 149.682 379.32 165.989C334.312 180.042 278.446 205.788 244.399 228.17C228.173 238.835 206.503 255.695 207.604 256.797C207.91 257.101 214.191 255.449 221.564 253.124C274.249 236.51 323.18 229.031 385.751 228.032C480.447 226.519 546.276 235.65 725.189 275.11C755.846 281.872 789.611 289.265 800.223 291.54C853.98 303.065 920.822 313.98 963.868 318.264L989.594 320.825L1040.33 320.832C1092.17 320.84 1108.1 319.831 1143.23 314.313C1202.84 304.953 1252.49 288.539 1297.91 263.179C1347.84 235.302 1392.51 193.044 1423.09 144.78C1439.18 119.371 1454.55 85.6551 1462.45 58.4415C1468.66 37.0031 1474.98 0 1472.42 0C1471.73 0 1466.36 4.87621 1460.48 10.8371ZM1387.68 273.84C1350.22 305.113 1289.98 334.839 1227 353.116C1165.11 371.076 1119.95 376.641 1037.47 376.466C943.934 376.269 890.898 368.909 734.479 334.417C594.822 303.621 564.224 297.873 502.658 290.863C320.24 270.096 171.373 301.726 52.744 386.452C29.3664 403.15 -1.8677 430.343 0.0874622 432.298C0.463346 432.674 6.19449 430.679 12.8232 427.862C81.9529 398.497 128.532 385.31 191.918 377.16L214.96 374.197L260.187 373.404C321.085 372.335 359.825 375.34 421.481 385.916C467.03 393.727 502.662 402.292 614.425 432.29C723.612 461.597 779.135 473.495 848.102 482.365C895.004 488.399 970.458 488.672 1018.18 482.981C1029.51 481.631 1063.52 476.034 1064.15 475.418C1064.28 475.291 1046.27 475.132 1024.13 475.067L983.877 474.947L963.868 472.508C886.029 463.029 839.084 451.922 727.125 416.502C687.045 403.823 521.639 348.681 509.378 343.912L503.661 341.689L509.378 341.634C530.335 341.44 610.699 357.725 681.264 376.466C850.16 421.324 909.732 433.016 992.737 437.589L1023.03 439.258L1059.91 437.602C1112.88 435.221 1149.79 429.806 1189.63 418.567C1260.55 398.561 1324.75 358.144 1370.9 304.448C1385.73 287.196 1399.69 267.797 1398.01 266.781C1397.41 266.419 1392.76 269.594 1387.68 273.84ZM245.688 428.288C208.171 430.015 155.993 438.748 119.586 449.398C111.34 451.809 105.864 455.618 113.723 453.474C120.693 451.573 206.323 452.142 223.535 454.203C301.074 463.488 358.605 478.745 510.093 530.195C635.112 572.658 689.599 587.232 758.776 596.716C780.594 599.706 850.487 601.076 876.247 599.017C951.358 593.014 1022.25 571.663 1083.21 536.684C1107.35 522.83 1137.65 501.28 1135.71 499.34C1135.28 498.909 1132.95 499.576 1130.54 500.822C1112.31 510.252 1069.93 523.438 1036.14 530.203C1005.34 536.365 979.651 538.875 938.142 539.776C835.606 542.001 755.05 528.789 579.41 480.939C483.146 454.713 415.484 439.787 365.742 433.806C320.765 428.397 282.033 426.618 245.688 428.288ZM1067.87 474.033C1069.26 474.396 1071.19 474.372 1072.16 473.98C1073.13 473.589 1071.99 473.293 1069.63 473.322C1067.27 473.35 1066.48 473.67 1067.87 474.033Z" fill="url(#paint0_linear_519_9)"/>
<defs>
<linearGradient id="paint0_linear_519_9" x1="1473" y1="26.6576" x2="0.0204418" y2="573.398" gradientUnits="userSpaceOnUse">
<stop stop-color="#6A381E"/>
<stop offset="0.249093" stop-color="#B06B3C"/>
<stop offset="0.5" stop-color="#FEDE99"/>
<stop offset="0.75" stop-color="#B77844"/>
<stop offset="1" stop-color="#6A381E"/>
</linearGradient>
</defs>
</svg>
